<svg version="1.1" id="Layer_1" xmlns="http://www.w3.org/2000/svg" xmlns:xlink="http://www.w3.org/1999/xlink" x="0px" y="0px"
	 width="100%" viewBox="0 0 256 256" enable-background="new 0 0 256 256" xml:space="preserve">
<path fill="#000000" opacity="1.000000" stroke="none" 
	d="
M150.000000,257.000000 
	C100.000000,257.000000 50.500008,257.000000 1.000007,257.000000 
	C1.000004,171.666672 1.000004,86.333351 1.000002,1.000018 
	C86.333321,1.000012 171.666641,1.000012 257.000000,1.000006 
	C257.000000,86.333313 257.000000,171.666626 257.000000,256.999969 
	C221.500000,257.000000 186.000000,257.000000 150.000000,257.000000 
M135.965240,103.352005 
	C138.911850,102.215569 141.887787,101.148766 144.796707,99.922874 
	C147.644043,98.722939 150.538681,97.394516 149.037903,93.373535 
	C147.525772,89.322151 144.331635,87.904984 140.348297,89.357086 
	C136.764709,90.663445 133.176559,91.961723 129.559372,93.170639 
	C118.995438,96.701256 109.413216,101.854355 101.917404,110.274323 
	C96.619392,116.225517 92.313400,123.072495 92.591057,131.166718 
	C92.851936,138.771500 92.684326,146.232086 99.180794,153.032440 
	C111.261536,165.678299 132.236298,170.658005 148.011002,162.494354 
	C151.732971,160.568176 155.223785,158.266846 157.760315,154.888229 
	C159.840118,152.117996 160.683121,149.151917 157.175308,146.673447 
	C154.089035,144.492813 151.159714,143.016098 148.284164,147.227585 
	C146.400925,149.985764 143.644440,151.682602 139.771576,151.607864 
	C141.428192,148.606735 144.561508,147.283218 145.944077,144.757599 
	C148.449142,140.181458 152.483398,138.789032 157.073105,137.570099 
	C164.476105,135.604034 171.443985,132.428757 178.187042,128.795334 
	C180.263443,127.676483 182.714020,126.338181 182.492432,123.810936 
	C182.255814,121.112045 179.569077,120.815849 177.194763,120.251114 
	C168.334518,118.143677 159.711502,120.337158 151.083115,121.592079 
	C148.260788,122.002571 146.384445,121.714180 144.490845,119.696167 
	C138.846252,113.680702 132.156845,110.543076 123.885437,113.420540 
	C115.548195,116.320923 110.568520,122.273109 108.628166,130.956619 
	C107.867607,134.360275 110.239105,137.389114 109.198830,140.937500 
	C105.010933,141.883606 105.043312,138.335571 104.791718,136.168747 
	C103.703194,126.794319 107.389023,119.288460 114.756279,113.610481 
	C120.875496,108.894356 127.811989,105.726982 135.965240,103.352005 
z"/>
</svg>